<?xml version="1.0" standalone="no"?>
<!DOCTYPE svg PUBLIC "-//W3C//DTD SVG 20010904//EN"
 "http://www.w3.org/TR/2001/REC-SVG-20010904/DTD/svg10.dtd">
<svg version="1.0" xmlns="http://www.w3.org/2000/svg"
 width="782.000000pt" height="189.000000pt" viewBox="0 0 782.000000 189.000000"
 preserveAspectRatio="xMidYMid meet">
<metadata>
Created by potrace 1.16, written by Peter Selinger 2001-2019
</metadata>
<g transform="translate(0.000000,189.000000) scale(0.100000,-0.100000)"
fill="#000000" stroke="none">
<path d="M115 1737 c-3 -7 -4 -145 -3 -307 l3 -295 24 -3 c13 -2 28 2 32 10 5
7 9 68 9 134 0 140 -5 134 100 134 105 0 100 6 100 -134 0 -66 4 -127 9 -134
4 -8 19 -12 32 -10 l24 3 0 305 0 305 -24 3 c-13 2 -28 -2 -32 -10 -5 -7 -9
-70 -9 -140 l0 -128 -100 0 -100 0 0 124 c0 68 -3 131 -6 140 -7 19 -53 21
-59 3z"/>
<path d="M1526 1735 c-3 -9 -6 -41 -6 -71 l0 -53 -132 -3 -133 -3 0 -235 0
-235 165 0 165 0 0 305 0 305 -26 3 c-17 2 -29 -3 -33 -13z m-22 -191 c14 -5
16 -30 16 -174 0 -193 7 -180 -100 -180 -107 0 -100 -13 -100 180 0 125 3 170
13 173 18 8 152 8 171 1z"/>
<path d="M3567 1743 c-4 -3 -7 -61 -7 -128 0 -95 3 -125 15 -135 26 -22 28
-50 6 -74 -20 -21 -21 -32 -19 -147 l3 -124 165 0 165 0 3 122 c2 115 2 122
-18 128 -31 10 -50 -12 -50 -56 0 -22 -4 -39 -8 -39 -7 0 -51 49 -106 118 -18
23 -18 23 33 77 l51 54 0 90 c0 49 -3 96 -6 105 -5 13 -25 16 -113 16 -59 0
-111 -3 -114 -7z m147 -59 c12 -5 16 -21 16 -68 0 -58 -2 -64 -34 -95 -54 -52
-66 -40 -66 68 0 62 4 91 13 94 18 8 53 8 71 1z m16 -390 c82 -97 82 -104 -12
-104 -88 0 -88 0 -88 94 0 77 4 96 20 96 4 0 39 -39 80 -86z"/>
<path d="M4085 1738 c-3 -7 -4 -146 -3 -308 l3 -295 165 0 165 0 3 28 3 27
-120 0 c-65 0 -126 3 -135 6 -24 9 -24 199 0 208 9 3 70 6 135 6 l120 0 -3 28
-3 27 -132 3 -133 3 0 103 c0 86 3 105 16 110 9 3 70 6 135 6 l120 0 -3 28 -3
27 -163 3 c-125 2 -164 0 -167 -10z"/>
<path d="M5115 1737 c-3 -7 -4 -145 -3 -307 l3 -295 165 0 165 0 0 235 0 235
-132 3 -133 3 0 53 c0 30 -3 61 -6 70 -7 19 -53 21 -59 3z m249 -193 c14 -5
16 -30 16 -174 0 -193 7 -180 -100 -180 -107 0 -100 -13 -100 180 0 125 3 170
13 173 18 8 152 8 171 1z"/>
<path d="M6146 1735 c-3 -9 -6 -41 -6 -71 l0 -53 -132 -3 -133 -3 0 -235 0
-235 165 0 165 0 0 305 0 305 -26 3 c-17 2 -29 -3 -33 -13z m-22 -191 c14 -5
16 -30 16 -174 0 -193 7 -180 -100 -180 -107 0 -100 -13 -100 180 0 125 3 170
13 173 18 8 152 8 171 1z"/>
<path d="M6526 1735 c-3 -9 -6 -41 -6 -71 l0 -53 -132 -3 -133 -3 0 -235 0
-235 165 0 165 0 0 305 0 305 -26 3 c-17 2 -29 -3 -33 -13z m-22 -191 c14 -5
16 -30 16 -174 0 -193 7 -180 -100 -180 -107 0 -100 -13 -100 180 0 125 3 170
13 173 18 8 152 8 171 1z"/>
<path d="M7286 1735 c-3 -9 -6 -41 -6 -71 l0 -53 -132 -3 -133 -3 0 -235 0
-235 165 0 165 0 0 305 0 305 -26 3 c-17 2 -29 -3 -33 -13z m-22 -191 c14 -5
16 -30 16 -174 0 -193 7 -180 -100 -180 -107 0 -100 -13 -100 180 0 125 3 170
13 173 18 8 152 8 171 1z"/>
<path d="M497 1604 c-4 -4 -7 -18 -7 -31 0 -23 1 -23 119 -23 66 0 126 -3 135
-6 10 -4 16 -18 16 -40 l0 -33 -132 -3 -133 -3 0 -165 0 -165 165 0 165 0 0
235 0 235 -161 3 c-88 1 -163 -1 -167 -4z m247 -200 c13 -5 16 -24 16 -104 0
-113 3 -110 -100 -110 -103 0 -100 -3 -100 110 0 69 4 100 13 103 18 8 152 8
171 1z"/>
<path d="M875 1598 c-3 -8 -4 -115 -3 -238 l3 -225 24 -3 c13 -2 28 2 32 10 5
7 9 99 9 204 0 166 2 193 16 198 9 3 70 6 135 6 l120 0 -3 28 -3 27 -163 3
c-126 2 -164 0 -167 -10z"/>
<path d="M1634 1597 c-2 -7 -3 -114 -2 -237 l3 -225 300 0 300 0 0 235 0 235
-27 3 -28 3 0 -200 c0 -188 -1 -201 -19 -211 -23 -12 -160 -13 -178 -2 -9 6
-13 63 -15 207 l-3 200 -24 3 c-13 2 -28 -2 -32 -10 -5 -7 -9 -99 -9 -204 0
-220 8 -204 -100 -204 -108 0 -100 -15 -100 200 0 104 -3 195 -6 204 -7 19
-53 21 -60 3z"/>
<path d="M2287 1604 c-4 -4 -7 -18 -7 -31 0 -23 1 -23 119 -23 66 0 126 -3
135 -6 10 -4 16 -18 16 -40 l0 -33 -132 -3 -133 -3 0 -165 0 -165 165 0 165 0
0 235 0 235 -161 3 c-88 1 -163 -1 -167 -4z m247 -200 c13 -5 16 -24 16 -104
0 -113 3 -110 -100 -110 -103 0 -100 -3 -100 110 0 69 4 100 13 103 18 8 152
8 171 1z"/>
<path d="M2665 1598 c-3 -8 -4 -115 -3 -238 l3 -225 24 -3 c13 -2 28 2 32 10
5 7 9 99 9 204 0 166 2 193 16 198 9 3 70 6 135 6 l120 0 -3 28 -3 27 -163 3
c-126 2 -164 0 -167 -10z"/>
<path d="M3045 1598 c-3 -8 -4 -115 -3 -238 l3 -225 165 0 165 0 3 28 3 27
-120 0 c-65 0 -126 3 -135 6 -10 4 -16 18 -16 40 l0 33 133 3 132 3 0 165 0
165 -163 3 c-126 2 -164 0 -167 -10z m249 -54 c13 -5 16 -24 16 -104 0 -113 3
-110 -100 -110 -103 0 -100 -3 -100 110 0 69 4 100 13 103 18 8 152 8 171 1z"/>
<path d="M4465 1597 c-3 -7 -4 -114 -3 -237 l3 -225 24 -3 c13 -2 28 2 32 10
5 7 9 99 9 204 0 220 -8 204 100 204 108 0 100 16 100 -204 0 -105 4 -197 9
-204 4 -8 19 -12 32 -10 l24 3 3 200 c2 144 6 201 15 207 18 11 155 10 178 -2
18 -10 19 -23 19 -211 l0 -200 28 3 27 3 0 235 0 235 -298 3 c-235 2 -299 0
-302 -11z"/>
<path d="M5495 1598 c-3 -8 -4 -115 -3 -238 l3 -225 165 0 165 0 3 28 3 27
-120 0 c-65 0 -126 3 -135 6 -10 4 -16 18 -16 40 l0 33 133 3 132 3 0 165 0
165 -163 3 c-126 2 -164 0 -167 -10z m249 -54 c13 -5 16 -24 16 -104 0 -113 3
-110 -100 -110 -103 0 -100 -3 -100 110 0 69 4 100 13 103 18 8 152 8 171 1z"/>
<path d="M6635 1598 c-3 -8 -4 -115 -3 -238 l3 -225 165 0 165 0 3 28 3 27
-120 0 c-65 0 -126 3 -135 6 -10 4 -16 18 -16 40 l0 33 133 3 132 3 0 165 0
165 -163 3 c-126 2 -164 0 -167 -10z m249 -54 c13 -5 16 -24 16 -104 0 -113 3
-110 -100 -110 -103 0 -100 -3 -100 110 0 69 4 100 13 103 18 8 152 8 171 1z"/>
<path d="M1655 888 c-3 -7 -4 -146 -3 -308 l3 -295 165 0 165 0 3 27 3 28
-120 0 c-65 0 -126 3 -135 6 -14 5 -16 36 -16 244 0 208 2 239 16 244 9 3 70
6 135 6 l120 0 -3 28 -3 27 -163 3 c-125 2 -164 0 -167 -10z"/>
<path d="M3555 887 c-3 -7 -4 -145 -3 -307 l3 -295 24 -3 c13 -2 28 2 32 10
10 15 12 568 3 592 -7 19 -53 21 -59 3z"/>
<path d="M3807 893 c-4 -3 -7 -35 -7 -69 l0 -63 -67 -3 c-66 -3 -68 -4 -71
-30 -3 -28 -3 -28 55 -28 32 0 64 -4 70 -8 9 -6 13 -63 15 -207 l3 -200 24 -3
c13 -2 28 2 32 10 5 7 9 99 9 204 0 216 -5 204 81 204 49 0 50 1 47 28 -3 26
-6 27 -65 30 l-63 3 0 54 c0 29 -3 60 -6 69 -6 16 -45 22 -57 9z"/>
<path d="M2035 748 c-3 -8 -4 -115 -3 -238 l3 -225 165 0 165 0 0 235 0 235
-163 3 c-126 2 -164 0 -167 -10z m249 -54 c14 -5 16 -30 16 -174 0 -193 7
-180 -100 -180 -107 0 -100 -13 -100 180 0 125 3 170 13 173 18 8 152 8 171 1z"/>
<path d="M2415 748 c-3 -8 -4 -115 -3 -238 l3 -225 24 -3 c13 -2 28 2 32 10 5
7 9 99 9 204 0 220 -8 204 100 204 108 0 100 16 100 -204 0 -105 4 -197 9
-204 4 -8 19 -12 32 -10 l24 3 0 235 0 235 -163 3 c-126 2 -164 0 -167 -10z"/>
<path d="M2794 747 c-2 -7 -3 -67 -2 -133 l3 -119 133 -3 132 -3 0 -68 c0 -54
-4 -70 -16 -75 -9 -3 -70 -6 -135 -6 l-120 0 3 -28 3 -27 165 0 165 0 3 133 3
132 -120 0 c-66 0 -126 3 -135 6 -12 5 -16 21 -16 69 0 48 4 64 16 69 9 3 70
6 135 6 l120 0 -3 28 -3 27 -163 3 c-128 2 -164 0 -168 -11z"/>
<path d="M3174 747 c-2 -7 -3 -114 -2 -237 l3 -225 165 0 165 0 0 235 0 235
-24 3 c-13 2 -28 -2 -32 -10 -5 -7 -9 -99 -9 -204 0 -220 8 -204 -100 -204
-108 0 -100 -15 -100 200 0 104 -3 195 -6 204 -7 19 -53 21 -60 3z"/>
<path d="M4047 754 c-4 -4 -7 -18 -7 -31 0 -23 1 -23 119 -23 66 0 126 -3 135
-6 10 -4 16 -18 16 -40 l0 -33 -132 -3 -133 -3 0 -165 0 -165 165 0 165 0 0
235 0 235 -161 3 c-88 1 -163 -1 -167 -4z m247 -200 c13 -5 16 -24 16 -104 0
-113 3 -110 -100 -110 -103 0 -100 -3 -100 110 0 69 4 100 13 103 18 8 152 8
171 1z"/>
<path d="M4425 748 c-3 -8 -4 -115 -3 -238 l3 -225 24 -3 c13 -2 28 2 32 10 5
7 9 99 9 204 0 220 -8 204 100 204 108 0 100 16 100 -204 0 -105 4 -197 9
-204 4 -8 19 -12 32 -10 l24 3 0 235 0 235 -163 3 c-126 2 -164 0 -167 -10z"/>
<path d="M4805 748 c-3 -8 -4 -115 -3 -238 l3 -225 165 0 165 0 3 28 3 27
-120 0 c-65 0 -126 3 -135 6 -14 5 -16 30 -16 174 0 144 2 169 16 174 9 3 70
6 135 6 l120 0 -3 28 -3 27 -163 3 c-126 2 -164 0 -167 -10z"/>
<path d="M5184 747 c-2 -7 -3 -114 -2 -237 l3 -225 133 -3 132 -3 0 -57 c0
-68 9 -85 41 -80 l24 3 0 305 0 305 -24 3 c-13 2 -28 -2 -32 -10 -5 -7 -9 -99
-9 -204 0 -220 8 -204 -100 -204 -108 0 -100 -15 -100 200 0 104 -3 195 -6
204 -7 19 -53 21 -60 3z"/>
</g>
</svg>
