<svg id="Layer_1" enable-background="new 0 0 479.998 479.998" height="512" viewBox="0 0 479.998 479.998" width="512" xmlns="http://www.w3.org/2000/svg"><path d="m122.532 206.998h-23.173c-2.209 0-4-1.791-4-4v-26.247c0-2.209 1.791-4 4-4h22.719c9.578 0 17.734 7.837 17.574 17.414-.155 9.308-7.775 16.833-17.12 16.833zm174.255 128.811c1.536 5.132-2.307 10.294-7.664 10.294h-233.123c-30.928 0-56-25.072-56-56v-150.21c0-30.928 25.072-56 56-56h324c30.928 0 56 25.072 56 56v150.21c0 9.148-2.206 17.79-6.113 25.424-1.748 3.416-5.718 5.065-9.394 3.965l-98.61-29.52c-18.258-5.47-35.347 11.594-29.875 29.875zm-149.878-118.078c-1.429-1.553-1.429-3.912 0-5.466 19.692-21.411 3.919-55.514-25.004-55.514h-34.546c-4.418 0-8 3.582-8 8 0 2.404 0 102.178 0 100.493 0 4.418 3.582 8 8 8h34.546c28.872 0 44.74-34.055 25.004-55.513zm109.238-52.98c0-4.418-3.582-8-8-8s-8 3.582-8 8v70.345c0 12.212-9.936 22.148-22.147 22.148s-22.147-9.936-22.147-22.148v-70.345c0-4.418-3.582-8-8-8s-8 3.582-8 8v70.345c0 21.035 17.113 38.148 38.147 38.148s38.147-17.113 38.147-38.148zm25.337 4.116 28.438 47.397c.814 1.357.57-2.087.57 48.966 0 4.595 3.874 8.285 8.533 7.983 4.252-.276 7.467-3.996 7.467-8.257 0-50.651-.243-47.336.57-48.691l28.439-47.397c2.272-3.789 1.044-8.703-2.744-10.976-3.792-2.275-8.703-1.044-10.977 2.744l-19.858 33.097c-1.554 2.589-5.306 2.589-6.86 0l-19.857-33.096c-2.272-3.789-7.186-5.017-10.977-2.744-3.788 2.272-5.016 7.186-2.744 10.974zm-182.125 88.377h22.719c9.578 0 17.734-7.837 17.574-17.414-.156-9.308-7.776-16.832-17.121-16.832h-23.172c-2.209 0-4 1.791-4 4v26.246c0 2.209 1.791 4 4 4zm126.641 162.719v-14c0-4.418-3.582-8-8-8s-8 3.582-8 8v14c0 4.418 3.582 8 8 8s8-3.581 8-8zm-81.834-16.145 9.899-9.899c3.124-3.124 3.124-8.189 0-11.313-3.125-3.124-8.189-3.124-11.314 0l-9.899 9.899c-5.057 5.057-1.404 13.657 5.657 13.657 2.048 0 4.095-.782 5.657-2.344zm81.834-379.786v-14c0-4.418-3.582-8-8-8s-8 3.582-8 8v14c0 4.418 3.582 8 8 8s8-3.581 8-8zm-71.935 12.045-9.899-9.899c-3.125-3.124-8.189-3.124-11.314 0-3.124 3.124-3.124 8.189 0 11.313l9.899 9.899c1.563 1.562 3.609 2.343 5.657 2.343 7.064 0 10.712-8.602 5.657-13.656zm139.184 11.313 9.899-9.899c3.124-3.124 3.124-8.189 0-11.313-3.125-3.124-8.189-3.124-11.314 0l-9.899 9.899c-5.057 5.057-1.404 13.657 5.657 13.657 2.048-.001 4.095-.782 5.657-2.344zm183.901 375.993-53.64-45.07 22.25-22.24c4.261-4.261 2.457-11.569-3.36-13.32l-125.11-37.45c-6.079-1.839-11.79 3.868-9.95 9.95l37.45 125.11c1.721 5.787 9.042 7.638 13.32 3.36l22.24-22.25 45.07 53.64c2.976 3.534 8.415 3.875 11.78.51l40.46-40.46c3.296-3.295 3.089-8.748-.51-11.78z"/></svg>